<svg xmlns="http://www.w3.org/2000/svg" viewBox="0 0 32 32" fill="none">
  <title>KDM Automotive — vehicle protection</title>
  <rect width="32" height="32" rx="8" fill="#002045"/>
  <!-- Subtle shield (warranty) behind car -->
  <path
    fill="#735c00"
    fill-opacity="0.35"
    d="M16 5 25 9.2v7.3c0 4.9-5.2 9.2-9 10.5-3.8-1.3-9-5.6-9-10.5V9.2L16 5Z"
  />
  <!-- Car: side profile -->
  <path
    fill="#fed65b"
    d="M7 19.5c0-.8.6-1.5 1.4-1.5h1.8l1.3-2.8c.2-.4.6-.7 1.1-.7h7.8c.5 0 .9.3 1.1.7l1.3 2.8h1.8c.8 0 1.4.7 1.4 1.5v2.5H7v-2.5Z"
  />
  <path fill="#002045" d="M9 20.5h14v1H9v-1Z" opacity=".25"/>
  <!-- Wheels -->
  <circle cx="11" cy="21.5" r="2.6" fill="#002045"/>
  <circle cx="21" cy="21.5" r="2.6" fill="#002045"/>
  <circle cx="11" cy="21.5" r="1.1" fill="#86a0cd"/>
  <circle cx="21" cy="21.5" r="1.1" fill="#86a0cd"/>
  <!-- Windshield hint -->
  <path
    fill="#002045"
    fill-opacity=".2"
    d="M13.5 14.2h5l.9 2h-6.8l.9-2Z"
  />
</svg>
